<?xml version="1.0" standalone="no"?>
<!DOCTYPE svg PUBLIC "-//W3C//DTD SVG 20010904//EN"
 "http://www.w3.org/TR/2001/REC-SVG-20010904/DTD/svg10.dtd">
<svg version="1.0" xmlns="http://www.w3.org/2000/svg"
 width="546.000000pt" height="546.000000pt" viewBox="0 0 546.000000 546.000000"
 preserveAspectRatio="xMidYMid meet">
<metadata>
Created by potrace 1.14, written by Peter Selinger 2001-2017
</metadata>
<g transform="translate(0.000000,546.000000) scale(0.100000,-0.100000)"
fill="#000000" stroke="none">
<path d="M1299 4626 c-2 -2 -31 -7 -64 -11 -117 -13 -284 -55 -365 -91 -156
-70 -239 -122 -350 -217 -229 -197 -410 -537 -474 -892 -3 -16 -8 -39 -10 -51
-2 -12 -7 -43 -10 -70 -4 -27 -11 -80 -15 -119 -10 -71 -6 -537 4 -610 42
-307 117 -558 218 -735 l43 -75 222 -3 222 -2 -46 67 c-44 64 -124 221 -124
243 0 6 -4 18 -9 28 -15 26 -48 167 -62 262 -8 58 -13 225 -13 530 0 464 3
539 30 667 9 43 17 85 19 93 7 36 48 147 77 208 108 233 308 404 557 478 150
44 403 56 606 28 259 -36 446 -138 537 -294 48 -82 61 -150 62 -321 l1 -156
173 0 c152 -1 172 1 173 16 5 70 3 955 -2 963 -5 8 -192 13 -324 9 -20 -1 -20
-7 -20 -143 1 -79 -1 -149 -3 -155 -8 -23 -21 -14 -43 30 -30 60 -135 157
-215 199 -38 20 -105 47 -149 61 -82 26 -103 31 -184 43 -25 4 -55 9 -66 11
-25 6 -391 14 -396 9z"/>
<path d="M2827 4570 c-8 -3 -12 -39 -13 -112 l-1 -108 182 0 182 0 1 -1267 c0
-698 1 -1283 1 -1301 l1 -32 207 2 207 3 0 495 1 495 279 0 c174 0 283 -4 291
-10 7 -5 34 -50 60 -100 27 -49 72 -134 102 -188 29 -54 53 -99 53 -101 0 -3
17 -35 38 -73 36 -64 79 -143 167 -308 21 -38 55 -103 77 -142 l39 -73 230 0
230 0 -39 73 c-22 39 -70 128 -107 197 -37 69 -82 152 -100 185 -247 457 -315
585 -315 593 0 5 17 12 39 16 122 19 305 104 410 190 77 63 94 82 148 162 97
142 142 299 144 494 2 336 -100 575 -315 736 -87 66 -240 131 -347 149 -24 4
-53 9 -64 11 -11 3 -54 7 -95 10 -94 7 -1676 11 -1693 4z m1633 -244 c14 -3
39 -9 55 -12 65 -14 157 -68 219 -129 77 -75 128 -173 149 -288 21 -109 16
-439 -7 -520 -43 -152 -136 -271 -260 -332 -118 -58 -155 -62 -611 -61 l-410
1 -1 670 c0 369 0 672 2 675 3 7 833 4 864 -4z"/>
<path d="M1726 2820 c-1 -3 -2 -52 -2 -110 l1 -105 301 -3 301 -2 -2 -273 c-1
-149 -6 -290 -10 -312 -11 -61 -43 -154 -75 -212 l-28 -53 268 0 268 0 0 358
c1 196 1 387 1 424 l1 67 153 3 152 3 1 108 c2 106 2 107 -22 108 -107 4
-1306 3 -1308 -1z"/>
<path d="M1480 1636 c-56 -12 -76 -37 -35 -44 11 -2 24 -8 29 -13 5 -4 9 -128
9 -281 -1 -188 2 -275 10 -280 6 -4 22 9 36 30 23 33 25 35 33 16 14 -31 71
-57 122 -56 81 2 128 39 157 124 21 64 18 171 -7 220 -35 70 -64 90 -149 102
-30 5 -77 -14 -107 -42 l-27 -25 0 99 c1 148 0 164 -8 163 -5 -1 -33 -6 -63
-13z m224 -237 c45 -16 67 -53 76 -121 18 -158 -42 -248 -147 -218 -74 20 -82
37 -81 171 1 128 10 150 73 171 31 9 46 9 79 -3z"/>
<path d="M2317 1633 c-2 -5 -14 -42 -27 -83 -12 -41 -32 -111 -46 -155 -13
-44 -48 -165 -79 -270 -30 -104 -58 -197 -61 -206 -5 -18 16 -31 34 -20 9 5
101 298 117 371 1 8 17 62 35 120 63 208 70 233 70 242 0 10 -37 11 -43 1z"/>
<path d="M2501 1571 c-121 -409 -191 -651 -191 -659 0 -5 9 -12 19 -15 22 -5
14 -29 111 302 28 95 53 181 55 190 2 9 11 40 20 69 27 93 43 147 46 162 3 9
-4 15 -18 16 -20 1 -26 -8 -42 -65z"/>
<path d="M4352 1629 c-19 -7 -23 -15 -20 -40 4 -41 37 -56 69 -30 40 32 0 89
-49 70z"/>
<path d="M207 1579 c-4 -15 0 -19 19 -19 19 0 25 -7 33 -37 5 -21 33 -130 61
-243 71 -284 65 -268 100 -266 16 1 31 4 34 7 5 4 98 348 120 442 8 33 21 28
30 -10 21 -88 108 -410 115 -423 5 -8 21 -15 36 -15 15 0 32 7 36 15 5 8 36
123 69 255 75 298 68 275 90 275 22 0 31 12 22 27 -4 7 -38 10 -87 9 -67 -1
-80 -4 -83 -18 -2 -12 3 -18 15 -19 51 -3 58 -5 56 -14 -1 -6 -16 -71 -33
-145 -17 -74 -33 -142 -35 -150 -1 -8 -8 -35 -15 -60 -7 -25 -14 -53 -16 -64
-6 -32 -9 -27 -28 47 -10 40 -38 146 -63 237 -25 91 -45 171 -46 178 0 7 -14
12 -34 12 -27 0 -35 -5 -43 -25 -10 -25 -48 -171 -56 -210 -2 -11 -10 -45 -19
-75 -8 -30 -22 -85 -31 -123 -18 -72 -22 -76 -30 -31 -3 16 -10 47 -16 69 -5
22 -11 47 -13 55 -2 8 -17 74 -34 146 -17 72 -31 136 -31 141 0 6 14 10 31 11
36 1 43 6 36 26 -4 11 -26 14 -95 14 -80 0 -91 -2 -95 -19z"/>
<path d="M2840 1576 c0 -19 4 -22 30 -18 21 3 30 0 31 -9 1 -15 0 -441 0 -475
-1 -15 -7 -20 -28 -20 -22 1 -28 -4 -28 -19 0 -19 6 -20 150 -19 132 1 157 4
200 23 57 25 89 57 119 121 17 37 21 63 20 150 0 122 -21 179 -83 231 -54 44
-107 56 -268 57 -143 1 -143 1 -143 -22z m290 -28 c37 -8 88 -48 106 -84 23
-48 32 -217 15 -276 -16 -51 -64 -104 -106 -118 -37 -12 -146 -17 -161 -7 -7
4 -12 489 -5 493 3 2 138 -6 151 -8z"/>
<path d="M4856 1487 c-15 -11 -22 -28 -25 -60 -1 -4 -12 0 -26 9 -35 23 -134
22 -176 -2 -88 -52 -100 -156 -25 -222 l33 -29 -28 -16 c-48 -27 -52 -104 -7
-124 23 -10 23 -10 -7 -25 -41 -22 -62 -48 -61 -78 4 -70 52 -95 186 -95 79 1
102 5 138 23 84 44 96 151 23 198 -18 12 -53 18 -121 21 -127 4 -140 8 -140
38 0 32 29 47 100 50 125 4 193 95 149 200 -21 52 -20 58 11 52 19 -4 32 -1
42 11 37 44 -18 84 -66 49z m-64 -97 c12 -15 18 -40 18 -77 0 -70 -29 -103
-90 -103 -60 0 -90 33 -90 100 0 59 12 87 43 100 35 15 100 4 119 -20z m48
-383 c37 -19 35 -72 -3 -101 -23 -17 -45 -21 -112 -23 -78 -2 -85 0 -109 24
-28 27 -28 46 0 91 13 20 22 22 107 22 54 0 102 -6 117 -13z"/>
<path d="M1125 1445 c-164 -57 -180 -349 -22 -421 43 -20 124 -22 159 -4 37
20 88 72 88 92 0 21 -28 24 -36 3 -9 -23 -66 -51 -111 -54 -73 -5 -126 49
-132 132 -2 25 2 37 11 38 7 0 73 0 146 0 137 0 136 0 132 44 -4 49 -11 70
-34 105 -40 61 -128 89 -201 65z m118 -47 c21 -11 47 -66 47 -101 0 -23 -1
-24 -110 -25 l-110 -1 0 25 c0 41 29 91 62 107 31 15 78 13 111 -5z"/>
<path d="M3569 1450 c-67 -19 -110 -61 -135 -134 -23 -67 -15 -161 19 -218 64
-109 227 -122 302 -24 21 28 25 40 17 48 -9 9 -20 4 -43 -20 -72 -74 -204 -42
-224 54 -3 13 -7 35 -10 49 -6 28 -16 27 188 26 l107 -1 0 34 c0 125 -107 216
-221 186z m90 -45 c26 -8 49 -46 57 -93 l6 -39 -111 -2 -111 -1 0 30 c0 85 72
133 159 105z"/>
<path d="M3985 1450 c-76 -17 -111 -64 -100 -137 7 -51 42 -89 95 -103 19 -5
54 -14 77 -20 31 -8 47 -19 56 -38 29 -61 -6 -102 -88 -102 -59 0 -95 27 -95
71 0 20 -5 25 -25 25 -27 0 -27 1 -27 -71 0 -66 0 -64 20 -60 9 2 20 4 25 4 4
1 7 8 7 16 0 11 7 10 35 -6 37 -22 103 -27 145 -11 65 26 98 109 66 170 -22
42 -48 58 -125 76 -95 22 -117 49 -96 116 6 18 48 38 73 34 6 -1 22 -2 35 -3
33 -2 61 -28 63 -59 1 -15 3 -30 3 -33 1 -3 12 -4 26 -2 22 5 24 9 23 64 -1
32 -4 59 -7 60 -3 0 -14 2 -23 4 -10 2 -18 -3 -18 -11 0 -18 -9 -18 -29 0 -19
17 -75 25 -116 16z"/>
<path d="M5053 1442 c-68 -15 -83 -36 -33 -45 l30 -6 0 -170 c0 -159 -1 -170
-18 -166 -25 4 -46 -9 -40 -26 3 -10 28 -14 96 -14 79 0 92 2 96 17 4 18 2 20
-36 22 -23 1 -23 3 -24 146 -1 158 5 179 55 199 66 28 140 -17 142 -87 1 -67
1 -217 0 -238 -1 -17 -7 -20 -31 -19 -24 1 -30 -2 -30 -19 0 -20 5 -21 95 -21
92 -1 95 0 95 22 0 18 -5 22 -27 20 l-28 -2 -2 125 c-2 192 -14 236 -71 259
-69 27 -132 18 -173 -25 l-24 -26 -5 34 -5 33 -62 -13z"/>
<path d="M4328 1440 c-15 -4 -29 -6 -31 -4 -2 3 -10 -2 -17 -11 -10 -12 -8
-16 15 -25 14 -5 30 -10 34 -10 4 0 8 -76 8 -169 l0 -168 -29 2 c-18 2 -28 -2
-28 -11 0 -8 -1 -17 -2 -21 -4 -10 169 -11 184 -2 20 12 1 37 -26 34 -30 -4
-28 -23 -27 253 l0 142 -27 -1 c-15 0 -39 -4 -54 -9z"/>
</g>
</svg>
