<svg xmlns="http://www.w3.org/2000/svg" width="127.627" height="88.721" viewBox="0 0 127.627 88.721"><g transform="translate(63.813 44.36)"><g transform="translate(-63.813 -44.36)"><path d="M102.313,68h9.753V44.692h13.381L137.959,68H148.73c-.011-.02-.023-.039-.034-.06L135.427,43.331C146.881,41.29,153,33.578,153,22.918c0-13.835-8.278-20.98-22.227-20.98H93.807V7.155h8.506Zm9.753-60.5h17.8c8.053,0,12.7,5.9,12.7,13.268V25.98c0,7.372-4.649,13.155-12.7,13.155h-17.8Z" transform="translate(-27.942 -0.577)" fill="#f2f2f2"/><path d="M57.5,65.462H71.56V76.008a16.381,16.381,0,0,1-2.685,9.359H81.427v-19.9h7.258V60.245H57.5Z" transform="translate(-17.127 -17.945)" fill="#f2f2f2"/><path d="M16.969,67.422c-3.873-4.7-6.083-11.331-6.083-19.338V33.568c0-16.558,7.712-27.557,24.382-27.557,12.248,0,19.847,4.536,19.847,12.928V24.5H63.28V1.361H55.115V8.619h-.567C52.733,3.969,46.269,0,34.021,0,13.155,0,0,14.516,0,40.939,0,51.7,2.346,60.652,6.538,67.422Z" fill="#f2f2f2"/><g transform="translate(4.804 69.778)"><path d="M7.875,102H6.842v-.9H11.4v.9H9.648l2.533,10.719h.079L15.242,101.1H16.9l3.06,11.615h.078L22.589,102H20.835v-.9H24.81v.9H23.777L20.542,114.7H18.924l-3.1-11.381h-.079L12.727,114.7H11.11Z" transform="translate(-6.842 -99.892)" fill="#f2f2f2"/><path d="M33.067,111.081c0-3.117,1.91-5.262,4.482-5.262,2.631,0,4.209,1.988,4.209,4.755v.449H34.841v.507c0,2.2,1.208,3.566,3.04,3.566a3.137,3.137,0,0,0,3.04-1.793l.643.409a4.056,4.056,0,0,1-3.936,2.631C34.763,116.343,33.067,114.257,33.067,111.081Zm1.774-.955h5.243v-.2c0-1.812-.76-3.2-2.534-3.2-1.754,0-2.709,1.345-2.709,3.157Z" transform="translate(-14.653 -101.297)" fill="#f2f2f2"/><path d="M50.448,112.69H50.37l-.9,1.5H48.83V100.88l-1.441-.253v-.682l3.04-.566v6.276h.078a3.064,3.064,0,0,1,2.962-1.754c2.495,0,4.112,1.852,4.112,5.262s-1.617,5.262-4.112,5.262A3.119,3.119,0,0,1,50.448,112.69Zm5.4-2.709v-1.637c0-2.007-1.053-3.332-2.846-3.332-1.267,0-2.573.741-2.573,2.007v4.288c0,1.266,1.306,2.007,2.573,2.007C54.794,113.314,55.847,111.988,55.847,109.981Z" transform="translate(-18.919 -99.379)" fill="#f2f2f2"/><path d="M75.026,99.712h1.111L71.09,117.077H69.979Z" transform="translate(-25.648 -99.478)" fill="#f2f2f2"/><path d="M81.854,99.712h1.111l-5.047,17.365H76.807Z" transform="translate(-27.682 -99.478)" fill="#f2f2f2"/><path d="M94.679,113.808h1.462V102H94.679v-.9h5.69c3.605,0,6.022,2.241,6.022,6.8s-2.417,6.8-6.022,6.8h-5.69Zm3.137-.059h2.378c2.67,0,4.326-1.891,4.326-4.677v-2.339c0-2.787-1.656-4.678-4.326-4.678H97.816Z" transform="translate(-33.005 -99.892)" fill="#f2f2f2"/><path d="M114,111.081c0-3.117,1.91-5.262,4.482-5.262,2.631,0,4.209,1.988,4.209,4.755v.449h-6.918v.507c0,2.2,1.208,3.566,3.04,3.566a3.137,3.137,0,0,0,3.04-1.793l.643.409a4.057,4.057,0,0,1-3.937,2.631C115.691,116.343,114,114.257,114,111.081Zm1.774-.955h5.242v-.2c0-1.812-.76-3.2-2.533-3.2-1.754,0-2.709,1.345-2.709,3.157Z" transform="translate(-38.759 -101.297)" fill="#f2f2f2"/><path d="M130.534,115.115h-.078v.994h-1.17v-3.021h1.17v.409c0,1.111.663,1.891,2.261,1.891,1.481,0,2.338-.507,2.338-1.676,0-.9-.584-1.5-1.656-1.734l-1.169-.253c-1.91-.409-2.9-1.384-2.9-3.08,0-1.754,1.325-2.825,3.372-2.825,1.228,0,2.066.429,2.318,1.053h.079v-.819h1.169v3.021h-1.169v-.741c0-1.034-.7-1.559-2.183-1.559-1.325,0-2.105.507-2.105,1.578a1.851,1.851,0,0,0,1.676,1.774l1.092.235c1.988.409,3,1.324,3,3.04,0,1.656-1.326,2.943-3.547,2.943A2.777,2.777,0,0,1,130.534,115.115Z" transform="translate(-43.314 -101.297)" fill="#f2f2f2"/><path d="M142.552,113.411h1.441v-7.893l-1.441-.254V104.6l3.04-.585v9.394h1.442v.9h-4.482ZM143.76,100.9v-.1a.982.982,0,0,1,1.034-1.034,1,1,0,0,1,1.052,1.034v.1a1,1,0,0,1-1.052,1.033A.982.982,0,0,1,143.76,100.9Z" transform="translate(-47.265 -99.495)" fill="#f2f2f2"/><path d="M151.1,117.353c0-1.053,1.032-1.755,2.066-2.027v-.078a1.632,1.632,0,0,1-1.228-1.656,1.956,1.956,0,0,1,1.656-1.852v-.1a3.113,3.113,0,0,1-1.988-2.982c0-2.046,1.618-3.313,3.839-3.313a4.228,4.228,0,0,1,2.67.838c.019-1.52.682-1.948,1.423-1.948a.926.926,0,0,1,.994.935.907.907,0,0,1-.994.936,1.042,1.042,0,0,1-.838-.39h-.059v.975a3.1,3.1,0,0,1,.682,1.969c0,2.046-1.657,3.332-3.879,3.332a4.454,4.454,0,0,1-1.033-.117c-.682.136-1.325.584-1.325,1.188,0,.643.468.877,1.617.877H157c2.28,0,3.372.975,3.372,2.67,0,1.91-1.735,3.157-5.008,3.157C152.23,119.769,151.1,118.815,151.1,117.353Zm3.9,1.462h.916c1.929,0,3.118-.7,3.118-1.793,0-.975-.6-1.5-2.281-1.5h-3.04a1.8,1.8,0,0,0-1.189,1.735C152.523,118.288,153.5,118.815,155,118.815Zm2.611-9.765v-.76a2.144,2.144,0,0,0-4.287,0v.76a2.144,2.144,0,0,0,4.287,0Z" transform="translate(-49.811 -100.826)" fill="#f2f2f2"/><path d="M166.392,115.213h1.441V107.32l-1.441-.254V106.4l3-.585v1.754h.078a3.033,3.033,0,0,1,2.884-1.754c2.416,0,3.391,1.267,3.391,3.781v5.613h1.442v.9h-4.482v-.9h1.441v-5.477c0-1.89-.76-2.806-2.358-2.806a2.134,2.134,0,0,0-2.358,1.988v6.3h1.441v.9h-4.482Z" transform="translate(-54.366 -101.297)" fill="#f2f2f2"/></g></g></g></svg>