<?xml version="1.0" encoding="UTF-8" standalone="no"?>
<!DOCTYPE svg PUBLIC "-//W3C//DTD SVG 1.1//EN" "http://www.w3.org/Graphics/SVG/1.1/DTD/svg11.dtd">
<svg width="100%" height="100%" viewBox="0 0 128 89" version="1.1" xmlns="http://www.w3.org/2000/svg" xmlns:xlink="http://www.w3.org/1999/xlink" xml:space="preserve" xmlns:serif="http://www.serif.com/" style="fill-rule:evenodd;clip-rule:evenodd;stroke-linejoin:round;stroke-miterlimit:2;">
    <g>
        <g>
            <g transform="matrix(1,0,0,1,-27.942,-0.577)">
                <path d="M102.313,68L112.066,68L112.066,44.692L125.447,44.692L137.959,68L148.73,68C148.719,67.98 148.707,67.961 148.696,67.94L135.427,43.331C146.881,41.29 153,33.578 153,22.918C153,9.083 144.722,1.938 130.773,1.938L93.807,1.938L93.807,7.155L102.313,7.155L102.313,68ZM112.066,7.5L129.866,7.5C137.919,7.5 142.566,13.4 142.566,20.768L142.566,25.98C142.566,33.352 137.917,39.135 129.866,39.135L112.066,39.135L112.066,7.5Z" style="fill:rgb(21,21,21);fill-rule:nonzero;"/>
            </g>
            <g transform="matrix(1,0,0,1,-17.127,-17.945)">
                <path d="M57.5,65.462L71.56,65.462L71.56,76.008C71.634,79.327 70.698,82.592 68.875,85.367L81.427,85.367L81.427,65.467L88.685,65.467L88.685,60.245L57.5,60.245L57.5,65.462Z" style="fill:rgb(21,21,21);fill-rule:nonzero;"/>
            </g>
            <path d="M16.969,67.422C13.096,62.722 10.886,56.091 10.886,48.084L10.886,33.568C10.886,17.01 18.598,6.011 35.268,6.011C47.516,6.011 55.115,10.547 55.115,18.939L55.115,24.5L63.28,24.5L63.28,1.361L55.115,1.361L55.115,8.619L54.548,8.619C52.733,3.969 46.269,0 34.021,0C13.155,0 0,14.516 0,40.939C0,51.7 2.346,60.652 6.538,67.422L16.969,67.422Z" style="fill:rgb(21,21,21);fill-rule:nonzero;"/>
            <g transform="matrix(1,0,0,1,4.804,69.778)">
                <g transform="matrix(1,0,0,1,-6.842,-99.892)">
                    <path d="M7.875,102L6.842,102L6.842,101.1L11.4,101.1L11.4,102L9.648,102L12.181,112.719L12.26,112.719L15.242,101.1L16.9,101.1L19.96,112.715L20.038,112.715L22.589,102L20.835,102L20.835,101.1L24.81,101.1L24.81,102L23.777,102L20.542,114.7L18.924,114.7L15.824,103.319L15.745,103.319L12.727,114.7L11.11,114.7L7.875,102Z" style="fill:rgb(21,21,21);fill-rule:nonzero;"/>
                </g>
                <g transform="matrix(1,0,0,1,-14.653,-101.297)">
                    <path d="M33.067,111.081C33.067,107.964 34.977,105.819 37.549,105.819C40.18,105.819 41.758,107.807 41.758,110.574L41.758,111.023L34.841,111.023L34.841,111.53C34.841,113.73 36.049,115.096 37.881,115.096C39.164,115.179 40.373,114.466 40.921,113.303L41.564,113.712C40.955,115.339 39.364,116.402 37.628,116.343C34.763,116.343 33.067,114.257 33.067,111.081ZM34.841,110.126L40.084,110.126L40.084,109.926C40.084,108.114 39.324,106.726 37.55,106.726C35.796,106.726 34.841,108.071 34.841,109.883L34.841,110.126Z" style="fill:rgb(21,21,21);fill-rule:nonzero;"/>
                </g>
                <g transform="matrix(1,0,0,1,-18.919,-99.379)">
                    <path d="M50.448,112.69L50.37,112.69L49.47,114.19L48.83,114.19L48.83,100.88L47.389,100.627L47.389,99.945L50.429,99.379L50.429,105.655L50.507,105.655C51.04,104.521 52.218,103.824 53.469,103.901C55.964,103.901 57.581,105.753 57.581,109.163C57.581,112.573 55.964,114.425 53.469,114.425C52.205,114.515 51.007,113.827 50.448,112.69ZM55.848,109.981L55.848,108.344C55.848,106.337 54.795,105.012 53.002,105.012C51.735,105.012 50.429,105.753 50.429,107.019L50.429,111.307C50.429,112.573 51.735,113.314 53.002,113.314C54.794,113.314 55.847,111.988 55.847,109.981L55.848,109.981Z" style="fill:rgb(21,21,21);fill-rule:nonzero;"/>
                </g>
                <g transform="matrix(1,0,0,1,-25.648,-99.478)">
                    <path d="M75.026,99.712L76.137,99.712L71.09,117.077L69.979,117.077L75.026,99.712Z" style="fill:rgb(21,21,21);fill-rule:nonzero;"/>
                </g>
                <g transform="matrix(1,0,0,1,-27.682,-99.478)">
                    <path d="M81.854,99.712L82.965,99.712L77.918,117.077L76.807,117.077L81.854,99.712Z" style="fill:rgb(21,21,21);fill-rule:nonzero;"/>
                </g>
                <g transform="matrix(1,0,0,1,-33.005,-99.892)">
                    <path d="M94.679,113.808L96.141,113.808L96.141,102L94.679,102L94.679,101.1L100.369,101.1C103.974,101.1 106.391,103.341 106.391,107.9C106.391,112.459 103.974,114.7 100.369,114.7L94.679,114.7L94.679,113.808ZM97.816,113.749L100.194,113.749C102.864,113.749 104.52,111.858 104.52,109.072L104.52,106.733C104.52,103.946 102.864,102.055 100.194,102.055L97.816,102.055L97.816,113.749Z" style="fill:rgb(21,21,21);fill-rule:nonzero;"/>
                </g>
                <g transform="matrix(1,0,0,1,-38.759,-101.297)">
                    <path d="M114,111.081C114,107.964 115.91,105.819 118.482,105.819C121.113,105.819 122.691,107.807 122.691,110.574L122.691,111.023L115.773,111.023L115.773,111.53C115.773,113.73 116.981,115.096 118.813,115.096C120.096,115.179 121.305,114.466 121.853,113.303L122.496,113.712C121.886,115.339 120.296,116.402 118.559,116.343C115.691,116.343 114,114.257 114,111.081ZM115.774,110.126L121.016,110.126L121.016,109.926C121.016,108.114 120.256,106.726 118.483,106.726C116.729,106.726 115.774,108.071 115.774,109.883L115.774,110.126Z" style="fill:rgb(21,21,21);fill-rule:nonzero;"/>
                </g>
                <g transform="matrix(1,0,0,1,-43.314,-101.297)">
                    <path d="M130.534,115.115L130.456,115.115L130.456,116.109L129.286,116.109L129.286,113.088L130.456,113.088L130.456,113.497C130.456,114.608 131.119,115.388 132.717,115.388C134.198,115.388 135.055,114.881 135.055,113.712C135.055,112.812 134.471,112.212 133.399,111.978L132.23,111.725C130.32,111.316 129.33,110.341 129.33,108.645C129.33,106.891 130.655,105.82 132.702,105.82C133.93,105.82 134.768,106.249 135.02,106.873L135.099,106.873L135.099,106.054L136.268,106.054L136.268,109.075L135.099,109.075L135.099,108.334C135.099,107.3 134.399,106.775 132.916,106.775C131.591,106.775 130.811,107.282 130.811,108.353C130.845,109.277 131.567,110.04 132.487,110.127L133.579,110.362C135.567,110.771 136.579,111.686 136.579,113.402C136.579,115.058 135.253,116.345 133.032,116.345C132.04,116.412 131.085,115.942 130.534,115.115Z" style="fill:rgb(21,21,21);fill-rule:nonzero;"/>
                </g>
                <g transform="matrix(1,0,0,1,-47.265,-99.495)">
                    <path d="M142.552,113.411L143.993,113.411L143.993,105.518L142.552,105.264L142.552,104.6L145.592,104.015L145.592,113.409L147.034,113.409L147.034,114.309L142.552,114.309L142.552,113.411ZM143.76,100.9L143.76,100.8C143.759,100.782 143.759,100.764 143.759,100.747C143.759,100.208 144.202,99.765 144.741,99.765C144.758,99.765 144.776,99.765 144.794,99.766C144.812,99.765 144.829,99.765 144.847,99.765C145.395,99.765 145.847,100.216 145.847,100.765C145.847,100.776 145.846,100.788 145.846,100.8L145.846,100.9C145.846,100.911 145.847,100.923 145.847,100.934C145.847,101.483 145.395,101.934 144.847,101.934C144.829,101.934 144.812,101.934 144.794,101.933C144.776,101.934 144.758,101.934 144.741,101.934C144.202,101.934 143.759,101.491 143.759,100.952C143.759,100.935 143.759,100.917 143.76,100.9Z" style="fill:rgb(21,21,21);fill-rule:nonzero;"/>
                </g>
                <g transform="matrix(1,0,0,1,-49.811,-100.826)">
                    <path d="M151.1,117.353C151.1,116.3 152.132,115.598 153.166,115.326L153.166,115.248C152.418,115.058 151.903,114.363 151.938,113.592C151.977,112.662 152.674,111.882 153.594,111.74L153.594,111.64C152.371,111.167 151.573,109.969 151.606,108.658C151.606,106.612 153.224,105.345 155.445,105.345C156.404,105.313 157.346,105.609 158.115,106.183C158.134,104.663 158.797,104.235 159.538,104.235C159.561,104.233 159.583,104.232 159.606,104.232C160.114,104.232 160.532,104.651 160.532,105.158C160.532,105.162 160.532,105.166 160.532,105.17C160.532,105.181 160.533,105.192 160.533,105.203C160.533,105.701 160.123,106.11 159.626,106.11C159.596,106.11 159.567,106.109 159.538,106.106C159.213,106.114 158.903,105.969 158.7,105.716L158.641,105.716L158.641,106.691C159.089,107.249 159.33,107.945 159.323,108.66C159.323,110.706 157.666,111.992 155.444,111.992C155.096,111.993 154.75,111.954 154.411,111.875C153.729,112.011 153.086,112.459 153.086,113.063C153.086,113.706 153.554,113.94 154.703,113.94L157,113.94C159.28,113.94 160.372,114.915 160.372,116.61C160.372,118.52 158.637,119.767 155.364,119.767C152.23,119.769 151.1,118.815 151.1,117.353ZM155,118.815L155.916,118.815C157.845,118.815 159.034,118.115 159.034,117.022C159.034,116.047 158.434,115.522 156.753,115.522L153.713,115.522C152.987,115.784 152.506,116.485 152.524,117.257C152.523,118.288 153.5,118.815 155,118.815ZM157.611,109.05L157.611,108.29C157.586,107.132 156.626,106.192 155.467,106.192C154.309,106.192 153.349,107.132 153.324,108.29L153.324,109.05C153.349,110.208 154.309,111.148 155.467,111.148C156.626,111.148 157.586,110.208 157.611,109.05Z" style="fill:rgb(21,21,21);fill-rule:nonzero;"/>
                </g>
                <g transform="matrix(1,0,0,1,-54.366,-101.297)">
                    <path d="M166.392,115.213L167.833,115.213L167.833,107.32L166.392,107.066L166.392,106.4L169.392,105.815L169.392,107.569L169.47,107.569C169.986,106.456 171.129,105.761 172.354,105.815C174.77,105.815 175.745,107.082 175.745,109.596L175.745,115.209L177.187,115.209L177.187,116.109L172.705,116.109L172.705,115.209L174.146,115.209L174.146,109.732C174.146,107.842 173.386,106.926 171.788,106.926C171.712,106.918 171.636,106.914 171.56,106.914C170.44,106.914 169.5,107.796 169.43,108.914L169.43,115.214L170.871,115.214L170.871,116.114L166.389,116.114L166.392,115.213Z" style="fill:rgb(21,21,21);fill-rule:nonzero;"/>
                </g>
            </g>
        </g>
    </g>
</svg>
