<svg xmlns="http://www.w3.org/2000/svg" width="134.89" height="113.089" viewBox="0 0 134.89 113.089">
  <g id="icon_responsive" data-name="icon responsive" transform="translate(67.445 56.545)">
    <g id="icon_responsive-2" data-name="icon responsive" transform="translate(-67.445 -56.545)">
      <path id="Tracé_46" data-name="Tracé 46" d="M67.5.007q28.013,0,56.025,0c7.64.007,11.243,3.341,11.281,11.036q.167,34.56.007,69.122c-.029,7.308-3.775,10.922-11.088,11.027-7.032.1-14.067-.021-21.1.043-2.548.023-3.787-.852-3.691-3.6.149-4.239.136-8.49,0-12.731-.083-2.677.991-3.652,3.635-3.616,7.274.1,14.554-.08,21.826.08,2.906.064,3.736-.993,3.722-3.8q-.143-28.011,0-56.024c.019-3.4-1.1-4.773-4.614-4.766q-56.025.112-112.05,0c-3.433-.008-4.734,1.169-4.714,4.649.1,18.675.046,37.35.051,56.025,0,1.833-.192,3.721,2.508,3.976,1.789.168,1.8,1.755,1.813,3.081.041,4.486.008,8.973.011,13.459,0,2.561-1.154,3.425-3.7,2.882-4.666-1-7.4-4.564-7.406-10.2Q-.02,51.9.009,23.164c0-4.123-.025-8.247.008-12.369C.075,3.6,3.567.036,10.752.021Q39.128-.036,67.5.007Z" transform="translate(0 0)" fill="#304d4f"/>
      <path id="Tracé_47" data-name="Tracé 47" d="M97.019,71.532c0,10.911.04,21.822-.012,32.733-.034,7.174-1.692,8.786-8.765,8.79-10.79.008-21.58-.043-32.369.031-2.8.019-4.361-.441-2.623-3.606a7.675,7.675,0,0,0,.574-4.637c-.414-3.612,1.241-4.543,4.623-4.479,9.331.177,18.669-.015,28,.105,2.748.035,3.865-.7,3.846-3.678q-.172-27.822-.009-55.646c.015-2.848-.936-3.825-3.774-3.806q-21.095.146-42.189,0c-2.91-.02-4.373.861-4.074,3.94.1,1.079-.024,2.18-.025,3.271,0,2.432-1.461,3.035-3.582,3-2.019-.031-3.223-.7-3.163-2.965.078-2.908-.062-5.822.051-8.727.129-3.338,2.059-5.215,5.324-5.229q26.367-.108,52.735,0c3.828.02,5.386,2.19,5.41,7.075C97.055,48.983,97.017,60.258,97.019,71.532Z" transform="translate(0 0)" fill="#304d4f"/>
      <path id="Tracé_48" data-name="Tracé 48" d="M13.109,80.811c0-7.874-.027-15.747.01-23.621.026-5.491,2.206-7.659,7.751-7.689q11.628-.063,23.257.005c5.252.037,7.664,2.2,7.705,7.486q.189,23.982,0,47.966c-.048,5.8-2.544,8.024-8.4,8.078q-10.9.1-21.8,0c-6.347-.07-8.5-2.3-8.515-8.6C13.092,96.557,13.108,88.684,13.109,80.811Zm32.012-2.945c0-6.059-.08-12.119.038-18.176.049-2.527-.921-3.453-3.407-3.415-6.179.1-12.36.074-18.54.015-2.26-.022-3.333.829-3.325,3.189q.063,18.176-.006,36.353c-.01,2.365,1.008,3.19,3.3,3.159,6.178-.083,12.362-.135,18.538.024,2.832.072,3.5-1.147,3.444-3.7C45.036,89.5,45.123,83.683,45.121,77.866Z" transform="translate(0 0)" fill="#304d4f"/>
      <path id="Tracé_49" data-name="Tracé 49" d="M105.751,111.6h-.725c-5.7-.008-7.87-3.207-5.887-8.765a2.407,2.407,0,0,1,1.081-1.309,1.338,1.338,0,0,1,1.759.876c1.468,3.84,4.888,4.693,8.3,5.646,1.007.282,2.329.574,2.24,1.971-.112,1.734-1.642,1.47-2.783,1.542-1.324.084-2.657.019-3.986.019Z" transform="translate(0 0)" fill="#304d4f"/>
    </g>
  </g>
</svg>
