<?xml version="1.0" encoding="UTF-8"?>
<svg id="Layer_2" data-name="Layer 2" xmlns="http://www.w3.org/2000/svg" viewBox="0 0 898.82 904.36">
  <defs>
    <style>
      .cls-1 {
        fill: #fff;
        stroke-width: 0px;
      }
    </style>
  </defs>
  <g id="Layer_1-2" data-name="Layer 1">
    <path class="cls-1" d="M809.29,97.57c-119.66-130.72-600.53-129.52-719.76.16-119.2,129.71-119.58,578.34.11,709.09,119.67,130.72,600.32,129.46,719.54-.22,119.2-129.68,119.8-578.28.11-709.03ZM418.74,570.72c37.52,14.01,79.76,9.5,114.85-13.6,9.58-6.29,41.38-17.25,65.74,6.84,11.55,11.41,23.19,22.94,33.75,33.47,12.75,12.7,18.31,23.29,19.51,37.72,2.41,28.77-14.01,47.63-52.19,67.28-102.2,56.11-230.27,47.08-326.8-36.7-97.19-82.66-125.71-232.08-63.25-346.54,50.88-93.2,144.08-151.09,247.07-152.4,2.32-.03,4.65-.06,6.98-.06h0c57.39.44,114.57,18.37,161.65,51.24,29.01,18.78,37.88,55.95,11.47,84.44-4.76,4.79-9.52,9.58-14.29,14.37-9.64,9.69-23.7,23.73-23.7,23.73-19.6,17.66-46.64,19.43-69.85,4.25-59.1-38.73-141.56-18.29-178.35,47.81-37.99,68.21-1.12,152.57,67.41,178.15Z"/>
  </g>
</svg>