<svg xmlns="http://www.w3.org/2000/svg" width="31.5" height="31.5" viewBox="0 0 31.5 31.5">
  <g id="icon-behance" transform="translate(-2.25 -2.25)">
    <path id="Tracé_144" data-name="Tracé 144" d="M24.195,16.425a2.349,2.349,0,0,0-2.313,2.025H26.2A1.954,1.954,0,0,0,24.195,16.425ZM14.4,18.45H10.575v3.516H14.21c.548-.014,1.575-.169,1.575-1.709,0-1.828-1.385-1.807-1.385-1.807Z" fill="#fff"/>
    <path id="Tracé_145" data-name="Tracé 145" d="M18,2.25A15.75,15.75,0,1,0,33.75,18,15.751,15.751,0,0,0,18,2.25Zm3.319,9.675H26.74v1.617H21.319V11.925Zm-2.742,8.494c0,4.008-4.177,3.881-4.177,3.881H7.566V11.152H14.4c2.081,0,3.72,1.146,3.72,3.5a2.28,2.28,0,0,1-2,2.5C18.759,17.156,18.577,20.419,18.577,20.419ZM28.716,20.2H21.9a2.137,2.137,0,0,0,2.313,2.285c2.187,0,2.109-1.413,2.109-1.413h2.313c0,3.755-4.5,3.495-4.5,3.495A4.666,4.666,0,0,1,19.09,19.54s-.007-5.048,5.048-5.048c5.323.007,4.577,5.709,4.577,5.709Z" fill="#fff"/>
    <path id="Tracé_146" data-name="Tracé 146" d="M15.328,14.857c0-1.364-.928-1.364-.928-1.364H10.575v2.932h3.586C14.78,16.425,15.328,16.221,15.328,14.857Z" fill="#fff"/>
  </g>
</svg>
