<?xml version="1.0" encoding="UTF-8"?>
<svg id="Layer_2" data-name="Layer 2" xmlns="http://www.w3.org/2000/svg" viewBox="0 0 225 225">
  <defs>
    <style>
      .cls-1 {
        fill: #fff;
        stroke-width: 0px;
      }
    </style>
  </defs>
  <g id="Layer_1-2" data-name="Layer 1">
    <path class="cls-1" d="M135.84,111.43c8.21-.02,14.82-6.66,14.86-14.93.04-8.27-6.48-14.87-14.77-14.96-9.04-.16-14.63,6.7-15,14.44-.4,8.31,6.63,15.46,14.91,15.44Z"/>
    <path class="cls-1" d="M223.17,0H1.83C.82,0,0,.82,0,1.83v221.33c0,1.01.82,1.83,1.83,1.83h221.33c1.01,0,1.83-.82,1.83-1.83V1.83c0-1.01-.82-1.83-1.83-1.83ZM62.12,84.35c4.72-11.03,13.5-16.89,25.24-18.54,1.81-.25,2.91.16,2.81,2.28-.09,1.83-.02,3.66-.02,5.49,0,1.5-.1,3,.02,4.49.2,2.37-.57,3.25-3.14,3.85-8.14,1.9-12.59,8.68-11.53,16.69.97,7.39,7.34,12.9,14.8,12.81,7.82-.1,14.19-5.66,14.72-14.04.7-11.17,4.53-20.4,14.13-26.57,16.63-10.7,40.66-3.09,46.18,17.49,3.48,12.97-1.5,26.31-12.48,33.67-10.87,7.28-25.55,7.03-35.82-1.39-3.25-2.67-5.06-2.17-7.9-.09-14.37,10.48-31.46,8.8-42.74-4.82-7.68-9.27-9.05-20.13-4.26-31.31ZM166.55,147.81c-.21,10.75-.03,10.76-10.91,10.76-14.31,0-28.62,0-42.93,0v-.02c-16.31,0-32.61-.13-48.92.1-3.62.05-4.35-.99-4.31-4.41.12-11.01-.03-11.02,11.12-11.02,30.45,0,60.9.09,91.34-.08,3.8-.02,4.67,1,4.6,4.68Z"/>
  </g>
</svg>