<?xml version="1.0" encoding="UTF-8"?>
<svg id="Layer_2" data-name="Layer 2" xmlns="http://www.w3.org/2000/svg" viewBox="0 0 61.04 59.88">
  <defs>
    <style>
      .cls-1 {
        fill: #fbf8f9;
      }

      .cls-1, .cls-2 {
        stroke-width: 0px;
      }

      .cls-2 {
        fill: #fbf2f5;
      }
    </style>
  </defs>
  <g id="Layer_1-2" data-name="Layer 1">
    <path class="cls-2" d="M0,26.98c5.86-6.07,13.22-5.21,22.03-4.52-5.22,5.2-9.59,9.77-14.22,14.04-1.44,1.33-3.07-.21-4.49-1.06-1.2-.72-1.25-2.96-3.32-2.48v-5.98Z"/>
    <path class="cls-2" d="M27.98,59.88c-5.12-4.84-4.43-9.83,2.1-12.43,3.49-1.39,4.27,2.83,6.48,4.22,4.04,2.64-.21,6.19-2.58,8.21h-6Z"/>
    <path class="cls-1" d="M14.67,53.23c-5.42-.09-9.22-6.08-6.81-10.94.66-1.34,1.7-2.55,2.77-3.62,9.95-9.98,19.91-19.94,29.96-29.82,2.44-2.39,5.2-4.57,9.03-3.25,5.39,1.87,7.29,7.58,3.66,12.3-2.88,3.74-6.42,6.98-9.78,10.33-7.21,7.19-14.49,14.32-21.76,21.46-1.97,1.93-4.07,3.64-7.07,3.54Z"/>
    <path class="cls-2" d="M44.51,41.21c1.16,0,2.32-.07,3.47.02,2.31.18,5.01-.92,6.32,2.37,1.08,2.72.22,4.92-1.4,6.86-1.88,2.25-4.28,3.75-7.41,2.69-4.42-1.5-7.4-4.88-10.19-8.34-1.51-1.87-.14-3.21,1.78-3.41,2.45-.25,4.95-.06,7.42-.06,0-.04,0-.08,0-.13Z"/>
    <path class="cls-2" d="M40.37,35.94c4.37-4.03,8.76-8.04,13.1-12.1,1.72-1.61,3.26-1.15,4.88.07,2.6,1.96,3,4.68,2.52,7.6-.47,2.86-2.11,4.81-5.05,5.5-4.74,1.11-9.5.77-14.26.52-.4-.53-.8-1.06-1.19-1.58Z"/>
    <path class="cls-2" d="M18.24,18.2c-1.7.13-2.85.3-4.01.28-2.22-.03-4.85.92-6.15-1.84-1.06-2.24-.81-4.54.71-6.55,1.76-2.32,3.97-4.39,7.06-3.74,5.2,1.08,8.3,5.29,11.46,9.04,1.35,1.61-.63,2.65-2.17,2.77-2.47.18-4.96.05-6.9.05Z"/>
    <path class="cls-2" d="M32.67,0c2.11.08,4.67,1.58,5.41,5.2.31,1.51-5.71,7.73-7.12,7.64-1.24-.08-6.92-6.13-6.96-7.41C23.92,2.64,27.49-.05,32.67,0Z"/>
  </g>
</svg>