<svg xmlns="http://www.w3.org/2000/svg" width="96.273" height="117.457" viewBox="0 0 96.273 117.457">
  <g id="icon_design" data-name="icon design" transform="translate(48.137 58.729)">
    <g id="icon_design-2" data-name="icon design" transform="translate(-48.137 -58.728)">
      <path id="Tracé_58" data-name="Tracé 58" d="M102.84,7.351C97.111,15.238,91.353,23.1,85.272,30.725,73.546,45.419,61.762,60.067,50.058,74.779c-1.237,1.555-2.029,1.686-3.451.2-4.08-4.261-8.262-8.426-12.494-12.536-1.278-1.241-1.2-2.047.017-3.261C53.258,40.15,72.211,20.944,91.847,2.431c.8-.754,1.657-1.446,2.488-2.168.466,0,.931-.006,1.4,0,2.37.033,5.53-.819,6.869.374C103.756,1.667,102.84,5.024,102.84,7.351Z" transform="translate(-6.911 0)" fill="#304d4f"/>
      <path id="Tracé_59" data-name="Tracé 59" d="M0,108.971c1.182-5.922,3.1-11.511,6.955-16.314a40.291,40.291,0,0,1,13.5-10.475,2.3,2.3,0,0,1,3.119.475c4.348,4.439,8.76,8.815,13.147,13.216a2.348,2.348,0,0,1,.953,2.47c-1.718,6.006-4.218,11.525-9.395,15.417a14.859,14.859,0,0,1-9.167,3.321c-11.926-.181-15.5,7.869-14.892,16.7.017.235.024.471.036.707H3.781c-2.108-4.334-2.765-9.069-3.781-13.7Z" transform="translate(0 -17.032)" fill="#304d4f"/>
    </g>
  </g>
</svg>
