<svg xmlns="http://www.w3.org/2000/svg" width="31.5" height="31.5" viewBox="0 0 31.5 31.5">
  <path id="icon-linkedin" d="M31.231,2.25H4.942A2.569,2.569,0,0,0,2.25,4.7V31.051a2.772,2.772,0,0,0,2.692,2.7H31.223a2.631,2.631,0,0,0,2.527-2.7V4.7A2.415,2.415,0,0,0,31.231,2.25ZM12.014,28.507H7.5V14.476h4.513Zm-2.1-16.164H9.882A2.316,2.316,0,0,1,7.5,9.922,2.33,2.33,0,0,1,9.939,7.5a2.324,2.324,0,0,1,2.412,2.42A2.331,2.331,0,0,1,9.914,12.343ZM28.507,28.507H23.994V20.835c0-1.838-.657-3.094-2.289-3.094a2.467,2.467,0,0,0-2.314,1.666,3.04,3.04,0,0,0-.156,1.108v7.992H14.722V14.476h4.513v1.953a4.57,4.57,0,0,1,4.07-2.281c2.962,0,5.2,1.953,5.2,6.162Z" transform="translate(-2.25 -2.25)" fill="#fff"/>
</svg>
