<svg xmlns="http://www.w3.org/2000/svg" width="36" height="35.112" viewBox="0 0 36 35.112">
  <path id="icon-github" d="M18,0a18,18,0,0,0-5.693,35.077c.9.158,1.238-.382,1.238-.855,0-.428-.023-1.845-.023-3.353C9,31.7,7.83,29.767,7.47,28.755a6.545,6.545,0,0,0-1.845-2.542c-.63-.337-1.53-1.17-.023-1.192A3.6,3.6,0,0,1,8.37,26.865a3.847,3.847,0,0,0,5.242,1.485,3.786,3.786,0,0,1,1.148-2.407c-4.005-.45-8.19-2-8.19-8.888a7.005,7.005,0,0,1,1.845-4.837,6.468,6.468,0,0,1,.18-4.77s1.507-.472,4.95,1.845a16.97,16.97,0,0,1,9,0c3.442-2.34,4.95-1.845,4.95-1.845a6.468,6.468,0,0,1,.18,4.77,6.965,6.965,0,0,1,1.845,4.837c0,6.907-4.208,8.438-8.212,8.888a4.263,4.263,0,0,1,1.215,3.33c0,2.407-.022,4.343-.022,4.95,0,.472.337,1.035,1.237.855A18.01,18.01,0,0,0,18,0Z" fill="#fff"/>
</svg>
