<svg xmlns="http://www.w3.org/2000/svg">

<symbol id="behance" viewBox="0 0 100 100">
<g fill="currentColor">
<path d="M22 14.2a2.3 2.3 0 0 0-2.4 2H24a2 2 0 0 0-2-2Zm-9.8 2H8.3v3.5H12c.5 0 1.5-.2 1.5-1.7 0-1.8-1.3-1.8-1.3-1.8Z"/><path d="M15.8 0a15.8 15.8 0 1 0 15.7 15.8A15.8 15.8 0 0 0 15.7 0ZM19 9.7h5.4v1.6H19V9.7Zm-2.8 8.5c0 4-4.2 3.9-4.2 3.9H5.3V8.9h6.9c2 0 3.7 1.1 3.7 3.5a2.3 2.3 0 0 1-2 2.5c2.6 0 2.4 3.3 2.4 3.3Zm10.2-.3h-6.9a2.1 2.1 0 0 0 2.4 2.3c2.1 0 2-1.4 2-1.4h2.4c0 3.8-4.5 3.5-4.5 3.5a4.7 4.7 0 0 1-5-5s0-5 5-5c5.3 0 4.6 5.7 4.6 5.7Z"/>
<path d="M13 12.6c0-1.4-.9-1.4-.9-1.4H8.3v3H12c.6 0 1.2-.2 1.2-1.6Z"/></g>
</symbol>


<symbol id="behance" xmlns="http://www.w3.org/2000/svg" viewBox="0 0 31.5 31.5">
<defs><style>.cls-1{stroke-width:0}</style></defs>
<g>
<path fill="currentColor" class="cls-1" d="M22 14.2c-1.2 0-2.2.8-2.4 2H24c0-1-.8-2-2-2Zm-9.8 2H8.3v3.5H12c.5 0 1.5-.2 1.5-1.7 0-1.8-1.3-1.8-1.3-1.8Z"/>
<path fill="currentColor" class="cls-1" d="M15.8 0a15.7 15.7 0 1 0 0 31.5 15.7 15.7 0 0 0 0-31.5ZM19 9.7h5.4v1.6H19V9.7Zm-2.8 8.5c0 4-4.2 3.9-4.2 3.9H5.3V8.9h6.8c2.1 0 3.8 1.1 3.8 3.5.1 1.2-.8 2.4-2 2.5 2.6 0 2.4 3.3 2.4 3.3Zm10.2-.3h-6.9c0 1.2.8 2.3 2 2.3h.4c2.2 0 2-1.4 2-1.4h2.4c0 3.8-4.5 3.5-4.5 3.5a4.7 4.7 0 0 1-5-5s0-5 5-5c5.3 0 4.6 5.7 4.6 5.7Z"/>
<path fill="currentColor" class="cls-1" d="M13 12.6c0-1.4-.8-1.4-.8-1.4H8.3v3H12c.6 0 1.2-.2 1.2-1.6Z"/>
</g>
</symbol>

<symbol id="pen" xmlns="http://www.w3.org/2000/svg" viewBox="0 0 121.6 148.3">
<defs><style>.cls-1{stroke-width:0}</style></defs>
<g><path class="cls-1" fill="currentColor" d="M0 116.1c1.5-7.5 4-14.5 8.8-20.6a50.8 50.8 0 0 1 17-13.2c1.6-.8 2.7-.7 4 .6l16.6 16.7c.8.8 1.6 1.7 1.2 3a34.8 34.8 0 0 1-11.9 19.6 18.8 18.8 0 0 1-11.6 4.2c-15-.3-19.5 9.9-18.8 21v1h-.5C2 142.8 1.3 136.8 0 131v-14.9ZM121.2 9.3c-7.3 10-14.6 19.9-22.2 29.5L54.5 94.4c-1.6 2-2.6 2.2-4.4.3a619.8 619.8 0 0 0-15.7-15.8c-1.7-1.6-1.6-2.6 0-4.2 24.1-24 48-48.3 72.9-71.6l3.1-2.8h1.8c3 0 7-1 8.7.5 1.4 1.3.3 5.5.3 8.5Z"/></g>
</symbol>

<symbol id="facebook" xmlns="http://www.w3.org/2000/svg" viewBox="0 0 100 100" preserveAspectRatio="xMidYMid meet">
<path d="M0 18.1A18.2 18.2 0 0 0 15 36V23h-4.5v-5H15v-4c0-4.5 2.9-7 7-7a27.2 27.2 0 0 1 4 .4V12h-2.3c-2.2 0-2.7 1.1-2.7 2.5V18h4.8l-.8 5h-4v13a18.1 18.1 0 0 0-3-36A18.1 18.1 0 0 0 0 18.1Z" fill="currentColor"/>
</symbol>

<symbol id="github" xmlns="http://www.w3.org/2000/svg" viewBox="0 0 100 100" preserveAspectRatio="xMidYMid meet">
<path d="M18 0a18 18 0 0 0-5.7 35c1 .2 1.2-.3 1.2-.8V31c-4.5.8-5.7-1.1-6-2.1a6.5 6.5 0 0 0-1.9-2.6C5 26 4.1 25 5.6 25A3.6 3.6 0 0 1 8.4 27a3.8 3.8 0 0 0 5.2 1.4 3.8 3.8 0 0 1 1.2-2.4c-4-.4-8.2-2-8.2-8.8a7 7 0 0 1 1.8-4.9 6.5 6.5 0 0 1 .2-4.8s1.5-.4 5 1.9a17 17 0 0 1 9 0C26 7 27.4 7.4 27.4 7.4a6.5 6.5 0 0 1 .2 4.8 7 7 0 0 1 1.8 4.9c0 6.9-4.2 8.4-8.2 8.8a4.3 4.3 0 0 1 1.2 3.4v5c0 .4.3 1 1.2.8A18 18 0 0 0 18 0Z" fill="currentColor"/>
</symbol>

<symbol id="linkedin" xmlns="http://www.w3.org/2000/svg" viewBox="0 0 100 100" preserveAspectRatio="xMidYMid meet">
<path d="M29 0H2.7A2.6 2.6 0 0 0 0 2.5v26.3a2.8 2.8 0 0 0 2.7 2.7H29a2.6 2.6 0 0 0 2.5-2.7V2.4A2.4 2.4 0 0 0 29 0ZM9.8 26.3H5.2v-14h4.6ZM7.7 10a2.3 2.3 0 0 1-2.5-2.4 2.3 2.3 0 0 1 2.5-2.5A2.3 2.3 0 0 1 10 7.8 2.3 2.3 0 0 1 7.7 10Zm18.6 16.2h-4.6v-7.7c0-1.9-.6-3.1-2.2-3.1a2.5 2.5 0 0 0-2.4 1.7 3 3 0 0 0-.1 1v8h-4.5v-14H17v2a4.6 4.6 0 0 1 4-2.3c3 0 5.3 2 5.3 6.2Z" fill="currentColor"/>
</symbol>

<symbol id="responsive" xmlns="http://www.w3.org/2000/svg" viewBox="0 0 134.9 113.1">
<defs><style>.cls-1{stroke-width:0}</style></defs><g>
<path class="cls-1" fill="currentColor" d="M67.5 0h56c7.7 0 11.3 3.3 11.3 11v69.2c0 7.3-3.8 10.9-11 11h-21.2c-2.5 0-3.8-.8-3.7-3.6.2-4.2.2-8.5 0-12.7 0-2.7 1-3.6 3.7-3.6h21.8c2.9.1 3.7-1 3.7-3.7v-56c0-3.5-1-4.8-4.6-4.8h-112c-3.5 0-4.8 1.1-4.8 4.6v56c0 1.9-.1 3.8 2.6 4 1.8.2 1.8 1.8 1.8 3.1V88c0 2.5-1.1 3.4-3.7 2.8-4.6-1-7.4-4.5-7.4-10.2V10.8C0 3.6 3.6 0 10.8 0h56.7Z"/>
<path fill="currentColor" class="cls-1" d="M97 71.5v32.8c0 7.1-1.7 8.7-8.8 8.7H56c-2.8.1-4.4-.4-2.7-3.5.8-1.5.8-3.1.6-4.7-.4-3.6 1.3-4.5 4.6-4.5 9.4.2 18.7 0 28 .1 2.8 0 4-.7 3.9-3.6V41c0-2.8-1-3.8-3.8-3.8H44.3c-2.9 0-4.3.9-4 4v3.2c0 2.4-1.5 3-3.7 3-2 0-3.2-.7-3.1-3v-8.7c.2-3.3 2.1-5.2 5.4-5.2h52.7c3.8 0 5.4 2.2 5.4 7v33.9Z"/>
<path class="cls-1" fill="currentColor" d="M13.1 80.8V57.2c0-5.5 2.2-7.7 7.8-7.7H44c5.3 0 7.7 2.2 7.7 7.5.2 16 .2 32 0 48 0 5.8-2.5 8-8.4 8H21.6c-6.3 0-8.5-2.3-8.5-8.6V80.8Zm32-3V59.8c.1-2.5-.9-3.5-3.4-3.4H23.3c-2.2 0-3.3.8-3.3 3.2v36.3c0 2.4 1 3.2 3.3 3.2 6.2-.1 12.3-.2 18.5 0 2.8 0 3.5-1.2 3.5-3.7-.2-5.8 0-11.6 0-17.5ZM105.8 111.6h-.8c-5.7 0-7.9-3.2-5.9-8.8.2-.5.6-1 1.1-1.3.8-.3 1.5.2 1.8.9 1.4 3.8 4.9 4.7 8.3 5.6 1 .3 2.3.6 2.2 2-.1 1.7-1.6 1.5-2.8 1.6h-4Z"/>
</g>
</symbol>

</svg>
